%TF.GenerationSoftware,KiCad,Pcbnew,8.0.3*%
%TF.CreationDate,2025-01-08T21:35:48+01:00*%
%TF.ProjectId,ArduinoNICShield,41726475-696e-46f4-9e49-43536869656c,rev?*%
%TF.SameCoordinates,Original*%
%TF.FileFunction,Soldermask,Bot*%
%TF.FilePolarity,Negative*%
%FSLAX46Y46*%
G04 Gerber Fmt 4.6, Leading zero omitted, Abs format (unit mm)*
G04 Created by KiCad (PCBNEW 8.0.3) date 2025-01-08 21:35:48*
%MOMM*%
%LPD*%
G01*
G04 APERTURE LIST*
%ADD10R,2.000000X2.000000*%
%ADD11C,2.000000*%
%ADD12O,1.050000X1.500000*%
%ADD13R,1.050000X1.500000*%
%ADD14O,1.727200X1.727200*%
%ADD15R,1.727200X1.727200*%
%ADD16C,3.200000*%
G04 APERTURE END LIST*
D10*
%TO.C,J2*%
X163500000Y-70460000D03*
D11*
X163500000Y-73000000D03*
%TD*%
D12*
%TO.C,Q1*%
X147270000Y-71860000D03*
X146000000Y-71860000D03*
D13*
X144730000Y-71860000D03*
%TD*%
D14*
%TO.C,A1*%
X147220000Y-113500000D03*
X122836000Y-65240000D03*
X120296000Y-65240000D03*
X165127000Y-88100000D03*
X165127000Y-90640000D03*
X134520000Y-113500000D03*
X167667000Y-88100000D03*
X165127000Y-85560000D03*
X131980000Y-113500000D03*
D15*
X167667000Y-90640000D03*
X144680000Y-113500000D03*
X142140000Y-113500000D03*
X127916000Y-65240000D03*
D14*
X130456000Y-65240000D03*
X132996000Y-65240000D03*
X135536000Y-65240000D03*
X138076000Y-65240000D03*
X140616000Y-65240000D03*
X143156000Y-65240000D03*
X147220000Y-65240000D03*
X149760000Y-65240000D03*
X152300000Y-65240000D03*
X154840000Y-65240000D03*
X157380000Y-65240000D03*
X159920000Y-65240000D03*
X162460000Y-65240000D03*
X165000000Y-65240000D03*
X125376000Y-65240000D03*
X165000000Y-113500000D03*
X162460000Y-113500000D03*
X159920000Y-113500000D03*
X157380000Y-113500000D03*
X154840000Y-113500000D03*
X152300000Y-113500000D03*
X167667000Y-85560000D03*
X139600000Y-113500000D03*
X137060000Y-113500000D03*
D16*
X167540000Y-80480000D03*
D14*
X129440000Y-113500000D03*
D16*
X167540000Y-108420000D03*
X116740000Y-65240000D03*
X115470000Y-113500000D03*
%TD*%
M02*
