M48
METRIC,TZ
T1C0.750
T2C1.016
T3C1.200
%
G90
G05
T1
X144730Y-71860
X146000Y-71860
X147270Y-71860
T2
X120296Y-65240
X122836Y-65240
X125376Y-65240
X127916Y-65240
X129440Y-113500
X130456Y-65240
X131980Y-113500
X132996Y-65240
X134520Y-113500
X135536Y-65240
X137060Y-113500
X138076Y-65240
X139600Y-113500
X140616Y-65240
X142140Y-113500
X143156Y-65240
X144680Y-113500
X147220Y-65240
X147220Y-113500
X149760Y-65240
X152300Y-65240
X152300Y-113500
X154840Y-65240
X154840Y-113500
X157380Y-65240
X157380Y-113500
X159920Y-65240
X159920Y-113500
X162460Y-65240
X162460Y-113500
X165000Y-65240
X165000Y-113500
X165127Y-85560
X165127Y-88100
X165127Y-90640
X167667Y-85560
X167667Y-88100
X167667Y-90640
T3
X163500Y-70460
X163500Y-73000
M30
