%TF.GenerationSoftware,KiCad,Pcbnew,8.0.3*%
%TF.CreationDate,2025-01-08T21:35:48+01:00*%
%TF.ProjectId,ArduinoNICShield,41726475-696e-46f4-9e49-43536869656c,rev?*%
%TF.SameCoordinates,Original*%
%TF.FileFunction,Copper,L2,Bot*%
%TF.FilePolarity,Positive*%
%FSLAX46Y46*%
G04 Gerber Fmt 4.6, Leading zero omitted, Abs format (unit mm)*
G04 Created by KiCad (PCBNEW 8.0.3) date 2025-01-08 21:35:48*
%MOMM*%
%LPD*%
G01*
G04 APERTURE LIST*
%TA.AperFunction,ComponentPad*%
%ADD10R,2.000000X2.000000*%
%TD*%
%TA.AperFunction,ComponentPad*%
%ADD11C,2.000000*%
%TD*%
%TA.AperFunction,ComponentPad*%
%ADD12O,1.050000X1.500000*%
%TD*%
%TA.AperFunction,ComponentPad*%
%ADD13R,1.050000X1.500000*%
%TD*%
%TA.AperFunction,ComponentPad*%
%ADD14O,1.727200X1.727200*%
%TD*%
%TA.AperFunction,ComponentPad*%
%ADD15R,1.727200X1.727200*%
%TD*%
%ADD16C,0.350000*%
G04 APERTURE END LIST*
D10*
%TO.P,J2,1,Pin_1*%
%TO.N,RX_Arduino*%
X163500000Y-70460000D03*
D11*
%TO.P,J2,2,Pin_2*%
%TO.N,GND*%
X163500000Y-73000000D03*
%TD*%
D12*
%TO.P,Q1,3,C*%
%TO.N,RX_Arduino*%
X147270000Y-71860000D03*
%TO.P,Q1,2,B*%
%TO.N,Net-(Q1-B)*%
X146000000Y-71860000D03*
D13*
%TO.P,Q1,1,E*%
%TO.N,GND*%
X144730000Y-71860000D03*
%TD*%
D14*
%TO.P,A1,VIN,VIN*%
%TO.N,unconnected-(A1-PadVIN)*%
X147220000Y-113500000D03*
%TO.P,A1,SDA,SDA*%
%TO.N,unconnected-(A1-PadSDA)*%
X122836000Y-65240000D03*
%TO.P,A1,SCL,SCL*%
%TO.N,unconnected-(A1-PadSCL)*%
X120296000Y-65240000D03*
%TO.P,A1,SCK,SPI_SCK*%
%TO.N,unconnected-(A1-SPI_SCK-PadSCK)*%
X165127000Y-88100000D03*
%TO.P,A1,RST2,SPI_RESET*%
%TO.N,unconnected-(A1-SPI_RESET-PadRST2)*%
X165127000Y-90640000D03*
%TO.P,A1,RST1,RESET*%
%TO.N,unconnected-(A1-RESET-PadRST1)*%
X134520000Y-113500000D03*
%TO.P,A1,MOSI,SPI_MOSI*%
%TO.N,unconnected-(A1-SPI_MOSI-PadMOSI)*%
X167667000Y-88100000D03*
%TO.P,A1,MISO,SPI_MISO*%
%TO.N,unconnected-(A1-SPI_MISO-PadMISO)*%
X165127000Y-85560000D03*
%TO.P,A1,IORF,IOREF*%
%TO.N,unconnected-(A1-IOREF-PadIORF)*%
X131980000Y-113500000D03*
D15*
%TO.P,A1,GND4,SPI_GND*%
%TO.N,unconnected-(A1-SPI_GND-PadGND4)*%
X167667000Y-90640000D03*
%TO.P,A1,GND3,GND*%
%TO.N,GND*%
X144680000Y-113500000D03*
%TO.P,A1,GND2,GND*%
X142140000Y-113500000D03*
%TO.P,A1,GND1,GND*%
X127916000Y-65240000D03*
D14*
%TO.P,A1,D13,D13*%
%TO.N,unconnected-(A1-PadD13)*%
X130456000Y-65240000D03*
%TO.P,A1,D12,D12*%
%TO.N,unconnected-(A1-PadD12)*%
X132996000Y-65240000D03*
%TO.P,A1,D11,D11*%
%TO.N,unconnected-(A1-PadD11)*%
X135536000Y-65240000D03*
%TO.P,A1,D10,D10_CS*%
%TO.N,unconnected-(A1-D10_CS-PadD10)*%
X138076000Y-65240000D03*
%TO.P,A1,D9,D9*%
%TO.N,unconnected-(A1-PadD9)*%
X140616000Y-65240000D03*
%TO.P,A1,D8,D8*%
%TO.N,TX_Arduino*%
X143156000Y-65240000D03*
%TO.P,A1,D7,D7*%
%TO.N,RX_Arduino*%
X147220000Y-65240000D03*
%TO.P,A1,D6,D6*%
%TO.N,unconnected-(A1-PadD6)*%
X149760000Y-65240000D03*
%TO.P,A1,D5,D5*%
%TO.N,unconnected-(A1-PadD5)*%
X152300000Y-65240000D03*
%TO.P,A1,D4,D4*%
%TO.N,unconnected-(A1-PadD4)*%
X154840000Y-65240000D03*
%TO.P,A1,D3,D3_INT1*%
%TO.N,unconnected-(A1-D3_INT1-PadD3)*%
X157380000Y-65240000D03*
%TO.P,A1,D2,D2_INT0*%
%TO.N,unconnected-(A1-D2_INT0-PadD2)*%
X159920000Y-65240000D03*
%TO.P,A1,D1,D1/TX*%
%TO.N,unconnected-(A1-D1{slash}TX-PadD1)*%
X162460000Y-65240000D03*
%TO.P,A1,D0,D0/RX*%
%TO.N,unconnected-(A1-D0{slash}RX-PadD0)*%
X165000000Y-65240000D03*
%TO.P,A1,AREF,AREF*%
%TO.N,unconnected-(A1-PadAREF)*%
X125376000Y-65240000D03*
%TO.P,A1,A5,A5*%
%TO.N,unconnected-(A1-PadA5)*%
X165000000Y-113500000D03*
%TO.P,A1,A4,A4*%
%TO.N,unconnected-(A1-PadA4)*%
X162460000Y-113500000D03*
%TO.P,A1,A3,A3*%
%TO.N,unconnected-(A1-PadA3)*%
X159920000Y-113500000D03*
%TO.P,A1,A2,A2*%
%TO.N,unconnected-(A1-PadA2)*%
X157380000Y-113500000D03*
%TO.P,A1,A1,A1*%
%TO.N,unconnected-(A1-PadA1)*%
X154840000Y-113500000D03*
%TO.P,A1,A0,A0*%
%TO.N,unconnected-(A1-PadA0)*%
X152300000Y-113500000D03*
%TO.P,A1,5V2,SPI_5V*%
%TO.N,unconnected-(A1-SPI_5V-Pad5V2)*%
X167667000Y-85560000D03*
%TO.P,A1,5V1,5V*%
%TO.N,unconnected-(A1-5V-Pad5V1)*%
X139600000Y-113500000D03*
%TO.P,A1,3V3,3.3V*%
%TO.N,unconnected-(A1-3.3V-Pad3V3)*%
X137060000Y-113500000D03*
%TO.P,A1,*%
%TO.N,*%
X129440000Y-113500000D03*
%TD*%
D16*
X163500000Y-70460000D03*
X163500000Y-73000000D03*
X147270000Y-71860000D03*
X146000000Y-71860000D03*
X144730000Y-71860000D03*
X147220000Y-113500000D03*
X122836000Y-65240000D03*
X120296000Y-65240000D03*
X165127000Y-88100000D03*
X165127000Y-90640000D03*
X134520000Y-113500000D03*
X167667000Y-88100000D03*
X165127000Y-85560000D03*
X131980000Y-113500000D03*
X167667000Y-90640000D03*
X144680000Y-113500000D03*
X142140000Y-113500000D03*
X127916000Y-65240000D03*
X130456000Y-65240000D03*
X132996000Y-65240000D03*
X135536000Y-65240000D03*
X138076000Y-65240000D03*
X140616000Y-65240000D03*
X143156000Y-65240000D03*
X147220000Y-65240000D03*
X149760000Y-65240000D03*
X152300000Y-65240000D03*
X154840000Y-65240000D03*
X157380000Y-65240000D03*
X159920000Y-65240000D03*
X162460000Y-65240000D03*
X165000000Y-65240000D03*
X125376000Y-65240000D03*
X165000000Y-113500000D03*
X162460000Y-113500000D03*
X159920000Y-113500000D03*
X157380000Y-113500000D03*
X154840000Y-113500000D03*
X152300000Y-113500000D03*
X167667000Y-85560000D03*
X139600000Y-113500000D03*
X137060000Y-113500000D03*
X167540000Y-80480000D03*
X129440000Y-113500000D03*
X167540000Y-108420000D03*
X116740000Y-65240000D03*
X115470000Y-113500000D03*
M02*
